<?xml version="1.0" standalone="no"?><!DOCTYPE svg PUBLIC "-//W3C//DTD SVG 1.1//EN" "http://www.w3.org/Graphics/SVG/1.1/DTD/svg11.dtd"><svg t="1586282498304" class="icon" viewBox="0 0 1104 1024" version="1.1" xmlns="http://www.w3.org/2000/svg" p-id="4942" xmlns:xlink="http://www.w3.org/1999/xlink" width="215.625" height="200"><defs><style type="text/css"></style></defs><path d="M828.236509 1024H276.671355a134.466879 134.466879 0 0 1-129.55246-99.124885L0.836497 313.709556a29.591078 29.591078 0 0 1 39.942728-34.191811l231.91877 94.105903L528.247802 12.570667a29.591078 29.591078 0 0 1 48.412259 0l255.549808 361.471229 231.814208-94.105903a29.591078 29.591078 0 0 1 40.04729 33.773563l-146.38696 610.2245v0.836497a134.466879 134.466879 0 0 1-129.447898 99.229447zM71.938735 356.161775l132.584761 554.179207a74.866474 74.866474 0 0 0 72.147859 54.476861h551.565154A75.18016 75.18016 0 0 0 900.48893 909.713609l132.480199-553.551834-200.236449 81.663011a29.486516 29.486516 0 0 1-35.341995-10.456211L552.401651 81.058852 307.517179 427.473137a29.486516 29.486516 0 0 1-35.341995 10.456211z m857.409339 560.975744z" p-id="4943" fill="#ffffff"></path><path d="M551.146905 783.298012a29.591078 29.591078 0 0 1-20.912422-8.678655L371.613755 615.998629a29.695641 29.695641 0 0 1 41.824846-41.824846l137.708304 137.603743 140.217796-140.217795a29.695641 29.695641 0 0 1 41.824846 41.824845l-161.025657 161.234781a29.800203 29.800203 0 0 1-21.016985 8.678655z" p-id="4944" fill="#ffffff"></path></svg>