<?xml version="1.0" standalone="no"?><!DOCTYPE svg PUBLIC "-//W3C//DTD SVG 1.1//EN" "http://www.w3.org/Graphics/SVG/1.1/DTD/svg11.dtd"><svg t="1586281691048" class="icon" viewBox="0 0 1024 1024" version="1.1" xmlns="http://www.w3.org/2000/svg" p-id="5194" xmlns:xlink="http://www.w3.org/1999/xlink" width="200" height="200"><defs><style type="text/css"></style></defs><path d="M729.6 375.466667c0-8.533333-7.466667-16-16-16H315.733333c-8.533333 0-16 7.466667-16 16s7.466667 16 16 16h397.866667c8.533333 0 16-7.466667 16-16zM654.933333 480c0-8.533333-7.466667-16-16-16H315.733333c-8.533333 0-16 7.466667-16 16s7.466667 16 16 16h322.133334c9.6 0 17.066667-7.466667 17.066666-16zM315.733333 570.666667c-8.533333 0-16 7.466667-16 16s7.466667 16 16 16h209.066667c8.533333 0 16-7.466667 16-16s-7.466667-16-16-16H315.733333z" fill="#ffffff" p-id="5195"></path><path d="M890.666667 157.866667c-37.333333 0-66.133333 9.6-83.2 28.8-18.133333 19.2-18.133333 41.6-17.066667 46.933333v423.466667c0 20.266667-17.066667 37.333333-37.333333 37.333333H266.666667c-20.266667 0-37.333333-17.066667-37.333334-37.333333V308.266667c0-20.266667 17.066667-37.333333 37.333334-37.333334h464c8.533333 0 16-7.466667 16-16s-7.466667-16-16-16H266.666667c-38.4 0-69.333333 30.933333-69.333334 69.333334v349.866666c0 38.4 30.933333 69.333333 69.333334 69.333334h486.4c38.4 0 69.333333-30.933333 69.333333-69.333334V233.6v-1.066667s-1.066667-12.8 9.6-23.466666c10.666667-11.733333 30.933333-18.133333 59.733333-18.133334 8.533333 0 16-7.466667 16-16s-8.533333-17.066667-17.066666-17.066666z" fill="#ffffff" p-id="5196"></path><path d="M221.866667 801.066667m-49.066667 0a49.066667 49.066667 0 1 0 98.133333 0 49.066667 49.066667 0 1 0-98.133333 0Z" fill="#ffffff" p-id="5197"></path><path d="M813.866667 801.066667m-49.066667 0a49.066667 49.066667 0 1 0 98.133333 0 49.066667 49.066667 0 1 0-98.133333 0Z" fill="#ffffff" p-id="5198"></path></svg>